# xmcd
#
# Track frame offsets: 
#        150
#        15053
#        36334
#        57466
#        81323
#        99250
#        118267
#        137963
#        153871
#        177941
#
# Disc length: 2652 seconds
#
# Revision: 0
# Processed by: cddbd v1.5.1PL0 Copyright (c) Steve Scherf et al.
# Submitted via: ExactAudioCopy v0.95b3
#
DISCID=7b0a5a0a
DTITLE=The Wingnut Adams Blues Band - Tub Thumpin'
DYEAR=2005
DGENRE=Blues
TTITLE0=Leave The Light On
TTITLE1=The Funk
TTITLE2=Real Lovin
TTITLE3=Hot In The Valley
TTITLE4=Wicked Ways
TTITLE5=Worn Out Picks
TTITLE6=Go Around
TTITLE7=Do You Love Me
TTITLE8=Blues Man
TTITLE9=What Would You Do
EXTD=
EXTT0=
EXTT1=
EXTT2=
EXTT3=
EXTT4=
EXTT5=
EXTT6=
EXTT7=
EXTT8=
EXTT9=
PLAYORDER=
